<svg xmlns="http://www.w3.org/2000/svg" viewBox="0 0 360 50" enable-background="new 0 0 360 50" width="360" height="50">
  <g fill="#fff">
    <path d="M237.3 0h15.2v50h-15.2v-50zM55.2 0h24.9c16.3 0 22.2 12.3 22.2 24.9 0 15.4-8 25.1-25.2 25.1h-21.9v-50zm15.1 37.2h5.9c9.4 0 10.8-7.8 10.8-12.5 0-3.1-.9-11.9-11.9-11.9h-4.8v24.4zM108.3 0h24.9c16.3 0 22.2 12.3 22.2 24.9 0 15.4-8 25.1-25.2 25.1h-21.9v-50zm15.2 37.2h5.9c9.4 0 10.8-7.8 10.8-12.5 0-3.1-.9-11.9-11.9-11.9h-4.8v24.4zM185.7 0h15.2v17.4h14.2v-17.4h15.2v50h-15.2v-19.8h-14.2v19.8h-15.2v-50zM259.6 0h15.2v37.2h21.8v12.8h-36.9v-50zM302.1 0h15.2v37.2h21.7v12.8h-36.9v-50zM24.6 0c-13.6 0-24.6 11.2-24.6 25s11 25 24.6 25c13.6 0 24.6-11.2 24.6-25s-11-25-24.6-25zm0 36.2c-6.1 0-11-5-11-11.2 0-6.2 4.9-11.2 11-11.2s11 5 11 11.2c0 6.2-4.9 11.2-11 11.2zM352.3 34.3c-4.3 0-7.7 3.5-7.7 7.9 0 4.3 3.5 7.9 7.7 7.9 4.3 0 7.7-3.5 7.7-7.9s-3.5-7.9-7.7-7.9z"/>
  </g>
</svg>